<?xml version="1.0" encoding="utf-8"?>
<!-- Generator: Adobe Illustrator 25.3.1, SVG Export Plug-In . SVG Version: 6.00 Build 0)  -->
<svg version="1.1" id="Layer_1" xmlns="http://www.w3.org/2000/svg" xmlns:xlink="http://www.w3.org/1999/xlink" x="0px" y="0px"
	 viewBox="0 0 912 912" style="enable-background:new 0 0 912 912;" xml:space="preserve">
<style type="text/css">
	.st0{fill:#B3B2B3;}
</style>
<g>
	<g>
		<path class="st0" d="M410.8,253.4c-1.6-1.6-2.5-2.5-4.1-4.1H325L121.9,649v9.7c1.6,1.6,2.5,2.5,4.1,4.1h81.8L410.8,263V253.4z"/>
	</g>
	<g>
		<path class="st0" d="M184.6,459.2c0.1-0.6,0.3-1.2,0.4-1.8v-12.7L85.8,249.3H4.1c-1.6,1.6-2.5,2.5-4.1,4.1v9.7l142.1,279.7
			L184.6,459.2z"/>
	</g>
	<g>
		<path class="st0" d="M478.6,522.9c0-7.7,0-15.7,0-23.5c0-1.5-0.1-3-0.4-4.7c-1.4-8.3-8-15.2-16.1-17.5l-23.2,45.7H478.6z"/>
	</g>
	<g>
		<path class="st0" d="M515.1,465.6c5.5,9.9,8.4,21,8.4,32.9c0,8.1,0,16.2,0,24.3v0.2c1.3,0,2.7,0,4,0c1.3,0,2.6,0.2,3.9,0.3
			L663.7,263v-9.6c-1.6-1.6-2.5-2.5-4.1-4.1h-81.8l-95,186.9C496.3,442,507.6,452.1,515.1,465.6z"/>
	</g>
	<g>
		<path class="st0" d="M385,523c1.2,0,2.4,0,3.5,0c0-1.6,0-3.3,0-4.9c0-6.4,0-13,0-19.5c0.1-19.8,7.4-36.6,21.7-50
			c10.7-10,23.4-15.8,37.8-17.5c1.3-0.1,2.6-0.3,4-0.3L537.2,263v-9.6c-1.6-1.6-2.5-2.5-4.1-4.1h-81.8L315.8,516.2v9.7
			c1.6,1.6,2.5,2.5,4.1,4.1h14.5H367C371.6,525.6,377.9,523,385,523z"/>
	</g>
	<g>
		<path class="st0" d="M790.1,253.4c-1.6-1.6-2.5-2.5-4.1-4.1h-81.8L552.9,547.3c0,0.4,0.1,0.8,0.1,1.3c0,19.1,0,38.1,0,57.2v21v4.1
			c0,5.9,0,11.7,0,17.6c0,5.3-1.5,10.2-4,14.2H587L790.1,263V253.4z"/>
	</g>
	<g>
		<path class="st0" d="M769.9,369.3l-42.5,83.6c-0.2,0.6-0.3,1.2-0.4,1.8v12.7l99.2,195.3h81.8c1.6-1.6,2.5-2.5,4.1-4.1V649
			L769.9,369.3z"/>
	</g>
	<g>
		<polygon class="st0" points="731.5,546.8 711.1,506.6 700.1,506.6 679.7,546.8 676.4,553.2 655.6,594.1 660.7,604.2 702.3,604.2 
			708.9,604.2 750.5,604.2 755.6,594.1 734.8,553.2 		"/>
	</g>
</g>
<g>
	<g>
		<g>
			<path class="st0" d="M400.3,534.8c0-2.8,0-5.3,0-7.9c0-9.4,0-18.8,0-28.2c0.1-16.4,6-30.2,18-41.4c8.7-8.2,19.1-13,31-14.4
				c23-2.6,44.2,8.3,55.5,28.5c4.7,8.4,6.9,17.5,6.9,27.1c0,11.6,0,23.2,0,34.8c0,0.4,0,0.9,0,1.4c0.5,0,0.9,0,1.3,0
				c4.8,0,9.6,0,14.4,0c7.7,0.1,13.8,6.1,13.8,13.8c0,26.1,0,52.1,0,78.2c0,7.2,0,14.5,0,21.7c0,8.2-6,14.2-14.2,14.2
				c-37.4,0-74.8,0-112.1,0c-10,0-19.9,0-29.9,0c-8.2,0-14.2-6-14.2-14.2c0-33.2,0-66.4,0-99.6c0-8.2,6-14.2,14.2-14.2
				c4.6,0,9.3,0,13.9,0C399.3,534.8,399.7,534.8,400.3,534.8z M490.3,534.7c0-0.5,0-0.8,0-1.1c0-11.4,0-22.8,0-34.1
				c0-2.2-0.2-4.4-0.6-6.6c-3.2-18.8-22.2-31.6-40.9-27.4c-16.1,3.6-27.1,17.3-27.1,33.9c0,11.4,0,22.8,0,34.2c0,0.4,0,0.8,0.1,1.2
				C444.7,534.7,467.4,534.7,490.3,534.7z M448.3,612.5C448.3,612.5,448.3,612.5,448.3,612.5c0,3.4,0,6.7,0,10.1
				c0,1.9,0.6,2.4,2.4,2.4c3.5,0,7,0,10.5,0c2,0,2.5-0.5,2.5-2.5c0-6.6,0-13.2,0-19.8c0-1,0.3-1.6,1.2-2.1c7.2-4.3,10.1-13.1,7-20.8
				c-3.1-7.7-11.2-12.1-19.4-10.5c-6.8,1.4-12.2,7-13.4,13.7c-1.2,7.2,2,14.1,8.3,17.8c0.7,0.4,0.9,0.8,0.9,1.6
				C448.3,605.8,448.3,609.1,448.3,612.5z"/>
		</g>
	</g>
</g>
</svg>
