<?xml version="1.0" encoding="utf-8"?>
<!-- Generator: Adobe Illustrator 25.3.1, SVG Export Plug-In . SVG Version: 6.00 Build 0)  -->
<svg version="1.1" id="Layer_1" xmlns="http://www.w3.org/2000/svg" xmlns:xlink="http://www.w3.org/1999/xlink" x="0px" y="0px"
	 viewBox="0 0 912 912" style="enable-background:new 0 0 912 912;" xml:space="preserve">
<style type="text/css">
	.st0{fill:#B3B2B3;}
</style>
<g>
	<g>
		<path class="st0" d="M335.41,784.89h-6v-72.01h6l12,48v-48h6v72.01h-6l-12-48V784.89z"/>
	</g>
	<g>
		<path class="st0" d="M381.66,782.18c-1.88,1.88-4.42,2.93-7.07,2.93h-4c-2.65,0-5.2-1.05-7.07-2.93
			c-1.88-1.88-2.93-4.42-2.93-7.07v-52.44c0-5.52,4.48-10,10-10h4c5.52,0,10,4.48,10,10v52.44
			C384.59,777.76,383.54,780.31,381.66,782.18z M374.59,718.67h-4c-2.21,0-4,1.79-4,4v52.44c0,2.21,1.79,4,4,4h4c2.21,0,4-1.79,4-4
			v-52.44C378.59,720.46,376.8,718.67,374.59,718.67z"/>
	</g>
	<g>
		<path class="st0" d="M414.33,718.89h-9v66.01h-6v-66.01h-9v-6h24V718.89z"/>
	</g>
	<g>
		<path class="st0" d="M457.9,718.89h-16v27h14v6h-14v33h-6v-72.01h22V718.89z"/>
	</g>
	<g>
		<path class="st0" d="M486.13,782.18c-1.88,1.88-4.42,2.93-7.07,2.93h-4c-2.65,0-5.2-1.05-7.07-2.93
			c-1.88-1.88-2.93-4.42-2.93-7.07v-52.44c0-5.52,4.48-10,10-10h4c5.52,0,10,4.48,10,10v52.44
			C489.06,777.76,488.01,780.31,486.13,782.18z M479.06,718.67h-4c-2.21,0-4,1.79-4,4v52.44c0,2.21,1.79,4,4,4h4c2.21,0,4-1.79,4-4
			v-52.44C483.06,720.46,481.27,718.67,479.06,718.67z"/>
	</g>
	<g>
		<path class="st0" d="M514.24,712.89h6v62.22c0,2.65-1.05,5.2-2.93,7.07c-1.88,1.88-4.42,2.93-7.07,2.93h-4
			c-2.65,0-5.2-1.05-7.07-2.93c-1.88-1.88-2.93-4.42-2.93-7.07v-62.22h6v62.22c0,2.21,1.79,4,4,4h4c2.21,0,4-1.79,4-4V712.89z"/>
	</g>
	<g>
		<path class="st0" d="M533.41,784.89h-6v-72.01h6l12,48v-48h6v72.01h-6l-12-48V784.89z"/>
	</g>
	<g>
		<path class="st0" d="M572.59,784.89h-14v-72.01h14c2.65,0,5.2,1.05,7.07,2.93c1.88,1.88,2.93,4.42,2.93,7.07v52
			C582.59,780.42,578.11,784.89,572.59,784.89z M564.59,778.89h8c1.06,0,2.08-0.42,2.83-1.17c0.75-0.75,1.17-1.77,1.17-2.83v-52
			c0-2.21-1.79-4-4-4h-8V778.89z"/>
	</g>
</g>
<g>
	<g>
		<path class="st0" d="M510.86,456.87c0.99,1.15,1.74,2.45,2.23,3.83c1.15,0.83,2.15,1.86,2.96,3.07
			c4.1,6.14,7.54,12.61,10.25,19.23c0.41,1,0.68,2.04,0.8,3.09c0.71,0.96,1.29,2.03,1.7,3.2c2.86,8.18,5.06,16.95,6.6,26.18
			l128.29-252.42v-9.65c-1.59-1.59-2.48-2.48-4.06-4.06h-81.75l-95.14,187.18C493.49,440.94,502.98,447.76,510.86,456.87z"/>
	</g>
	<g>
		<path class="st0" d="M607.53,440.1c2.15-3.67,6.09-5.92,10.35-5.92h62.75c6.63,0,12,5.37,12,12v8.69l97.5-191.83v-9.65
			c-1.59-1.59-2.48-2.48-4.06-4.06h-81.75L606.18,442.4L607.53,440.1z"/>
	</g>
	<g>
		<path class="st0" d="M345.2,464.72c0,0.98-0.12,1.94-0.34,2.85c0.22,0.91,0.34,1.87,0.34,2.85v17.11c0,0.98-0.12,1.94-0.34,2.85
			c0.22,0.91,0.34,1.87,0.34,2.85v29.72c2.54,1.57,4.44,4.05,5.26,6.99h14.05c0.82-9.38,2.27-18.36,4.35-26.85
			c-1.03-0.72-1.95-1.6-2.73-2.63c-2.27-3.01-2.99-6.9-1.96-10.52c0.71-2.47,1.74-5.08,3.08-7.77c1.42-2.84,3.88-4.96,6.78-5.97
			c-0.05-0.1-0.11-0.19-0.16-0.29c-2.06-4-1.71-8.81,0.91-12.47c1.53-2.14,3.11-4.36,4.83-6.41c2.28-2.73,5.66-4.31,9.21-4.31h6.19
			c14.56-14.58,33.8-22.25,55.99-22.25c0.38,0,0.75,0.02,1.13,0.03l85.11-167.45v-9.65c-1.59-1.59-2.48-2.48-4.06-4.06h-81.75
			L345.2,458.35V464.72z"/>
	</g>
	<g>
		<path class="st0" d="M544,617.62c-6.63,0-12-5.37-12-12v-1.33c-0.05,0.21-0.08,0.43-0.14,0.64c-0.31,1.08-0.62,2.08-0.92,3.08
			c-0.26,0.85-0.53,1.7-0.79,2.62c-0.11,0.38-0.23,0.74-0.37,1.1c0.1,0.13,0.19,0.27,0.28,0.4c2.22,3.37,2.6,7.62,1.01,11.33
			c-0.76,1.79-1.61,3.4-2.36,4.82c-0.28,0.53-0.55,1.04-0.79,1.52c-1.83,3.67-5.39,6.11-9.4,6.56
			c-4.92,8.02-10.74,14.85-17.33,20.43v1.8c1.59,1.59,2.48,2.48,4.06,4.06h81.75l22.9-45.05H544z"/>
	</g>
	<g>
		<path class="st0" d="M769.86,369.29l-42.48,83.55c-0.15,0.62-0.29,1.22-0.44,1.84v12.74l99.24,195.26h81.75
			c1.59-1.59,2.48-2.48,4.06-4.06v-9.65L769.86,369.29z"/>
	</g>
	<g>
		<path class="st0" d="M184.62,459.16c0.15-0.62,0.29-1.22,0.44-1.84v-12.74L85.82,249.33H4.06c-1.59,1.59-2.48,2.48-4.06,4.06v9.65
			l142.14,279.67L184.62,459.16z"/>
	</g>
	<g>
		<path class="st0" d="M731.55,546.75l-20.41-40.16h-1.39v3.77c0,4.98-3.03,9.24-7.34,11.06c1.04,1.78,1.64,3.85,1.64,6.05v5.71
			c0,6.43-5.06,11.68-11.41,11.99v2.28c0,0.48-0.03,0.96-0.08,1.43c0.03,0.28,0.06,0.55,0.07,0.83h5.13c4.2,0,7.89,2.16,10.04,5.42
			h13.35c6.63,0,12,5.37,12,12v0.29c0,6.63-5.37,12-12,12h-3.4c0.73,1.55,1.14,3.29,1.14,5.11v2.85c0,2.96-1.07,5.67-2.85,7.77v9.08
			h34.43l5.15-10.16l-20.79-40.9L731.55,546.75z"/>
	</g>
	<g>
		<path class="st0" d="M382.24,634.24l-7.48,14.72v9.65c1.59,1.59,2.48,2.48,4.06,4.06h29.9
			C398.2,655.89,389.24,646.33,382.24,634.24z"/>
	</g>
	<g>
		<path class="st0" d="M196.57,617.62c-3.83,0-7.24-1.79-9.43-4.58c-4.8-1.57-8.27-6.08-8.27-11.41v-5.71
			c0-4.34,2.31-8.14,5.76-10.25c-0.04-0.38-0.06-0.77-0.06-1.16v-13.98c0-2.15,0.58-4.26,1.67-6.11l11.98-20.25
			c0.59-1,1.32-1.9,2.15-2.67c0.28-1.07,0.72-2.12,1.31-3.09l3.42-5.7c0.59-0.98,1.3-1.85,2.11-2.61c0.28-1.05,0.71-2.08,1.28-3.04
			l15.81-26.66c-0.29-0.39-0.56-0.81-0.81-1.24c-2.13-3.76-2.07-8.38,0.15-12.09l3.42-5.71c1.6-2.67,4.15-4.57,7.07-5.39
			c-1.93-3.69-1.81-8.14,0.35-11.73l3.42-5.7c2.17-3.61,6.07-5.83,10.29-5.83h4.52l7.36-12.6c2.15-3.68,6.1-5.94,10.36-5.94h53.38
			l86.98-171.14v-9.65c-1.59-1.59-2.48-2.48-4.06-4.06h-81.75L121.88,648.96v9.65c1.59,1.59,2.48,2.48,4.06,4.06h81.75l22.9-45.05
			H196.57z"/>
	</g>
</g>
<g>
	<g>
		<path class="st0" d="M285.85,605.62h-89.28v-3.99h-5.7v-5.71h5.7v-5.7h11.41v-5.71h-11.41v-13.98l11.98-20.25h2.85l3.42-5.71
			h-2.85l3.42-5.7h5.71l3.42-5.71h-5.7l23.67-39.93h-8.56l3.42-5.71h8.56l10.27-17.11h-11.41l3.42-5.7h11.41l10.84-18.54h62.75
			v18.54h-11.41v5.7h11.41v17.11h-8.56v5.71h8.56v39.93h5.7v5.71h-5.7v5.7h2.85v5.71h-2.85v16.83h23.39v17.4H368v5.71h-11.41v5.7
			h-5.7v5.71h5.7v3.99H333.2v1.71h-8.56v5.7h8.56v5.71h5.7v5.71h-5.7v34.23h-47.35v-34.23h5.7v-5.71h-5.7v-5.71h-8.56v-5.7h8.56
			V605.62z M285.85,567.12v-16.83h2.85v-5.71h-2.85v-5.7h5.7v-2.85c0-0.86,0-2,0-2.85h-5.7c0.28-11.98,0.86-27.67,1.43-39.93h-8.56
			c0.29-1.71,0.29-3.14,0.29-4.56h-1.14c-0.57,1.43-1.43,3.14-2,4.56h8.56c-4.85,10.84-9.98,21.39-15.12,31.95l-4.56,7.99h5.71
			l-3.42,5.71h-5.7l-3.14,5.7h2.85l-3.42,5.71h-2.85l-9.7,16.83H285.85z"/>
	</g>
	<g>
		<path class="st0" d="M375.71,551.43c0-0.29,0-0.86,0-1.14h2.85c0-2,0-3.71,0-5.71h-2.85c0-2,0-3.71,0.29-5.7h5.7
			c0-2,0.29-3.71,0.29-5.71h-5.71c1.14-15.12,3.99-28.53,7.99-39.93h-8.56c0.57-2,1.43-3.99,2.28-5.71h8.56
			c2.57-6.27,5.7-11.98,9.41-17.11h-11.41c1.43-2,2.85-3.99,4.28-5.7h11.41c12.84-14.83,30.52-22.25,50.77-22.25
			c20.25,0,37.94,7.42,50.77,22.25h-11.41c1.43,1.71,2.85,3.71,4.28,5.7h11.41c3.42,5.14,6.56,10.84,9.13,17.11h-8.56
			c0.86,1.71,1.71,3.71,2.28,5.71h8.56c3.99,11.41,6.85,24.82,7.99,39.93h5.71c0,2,0.28,3.71,0.28,5.71h-5.7
			c0.28,2,0.28,3.71,0.28,5.7h2.85c0,2,0,3.71,0,5.71h-2.85c0,0.29,0,0.86,0,1.14c0,11.98-0.86,23.1-2.28,33.09h11.41
			c-0.28,2-0.57,3.71-0.86,5.71h-11.41c-0.28,2-0.86,3.71-1.14,5.7h-5.7c-0.57,2-0.86,3.71-1.43,5.71h5.71
			c-0.57,2-1.14,3.71-1.71,5.71h-8.56c-0.57,2-1.43,3.99-2,5.7h8.56c-0.86,2-1.43,3.99-2.28,5.71h5.7c-0.86,2-2,3.99-2.85,5.71
			h-5.71c-13.12,25.39-34.51,38.22-60.47,38.22s-47.35-12.84-60.47-38.22h5.7c-0.86-1.71-2-3.71-2.85-5.71h-5.7
			c-0.86-1.71-1.71-3.71-2.28-5.71h-8.56c-0.57-1.71-1.43-3.71-2-5.7h8.56c-0.57-2-1.14-3.71-1.71-5.71h-5.7
			c-0.57-2-1.14-3.71-1.43-5.71h5.71c-0.57-2-0.86-3.71-1.14-5.7h11.41c-0.29-2-0.57-3.71-1.14-5.71h-11.41
			C376.56,574.53,375.71,563.41,375.71,551.43z M478.11,551.43c0-0.29,0-0.86,0-1.14h2.85c0-2,0-3.99,0-5.71h-2.85
			c0-2,0-3.99-0.28-5.7h5.7c0-2-0.28-3.99-0.28-5.71h-5.7c-1.14-19.4-3.99-31.95-7.99-39.93h-8.56c-1.14-2.28-2.57-4.28-3.99-5.71
			h8.56c-4.28-4.56-9.13-6.27-14.55-6.27c-5.42,0-10.27,1.71-14.83,6.27h-8.56c-1.43,1.43-2.85,3.42-3.99,5.71h8.56
			c-3.99,7.99-6.85,20.54-7.99,39.93h5.7c0,1.71-0.28,3.71-0.28,5.71h-5.71c-0.28,1.71-0.28,3.71-0.28,5.7h2.85
			c0,1.71,0,3.71,0,5.71h-2.85c0,0.29,0,0.86,0,1.14c0,13.12,0.57,24.24,1.71,33.09h11.41c0.28,2,0.57,3.99,0.86,5.71h-11.41
			c0.29,2,0.86,3.99,1.14,5.7h-5.7c0.57,2,0.86,3.99,1.43,5.71h5.7c0.57,2,1.43,3.99,2,5.71h-8.56c0.86,2.28,2,3.99,2.85,5.7h8.56
			c1.71,2.28,3.14,4.28,4.85,5.71h5.71c3.71,3.42,7.99,4.56,12.55,4.56c4.56,0,8.84-1.14,12.55-4.56h-5.7
			c1.71-1.42,3.14-3.42,4.56-5.71h-8.56c0.86-1.71,2-3.42,2.85-5.7h8.56c0.57-1.71,1.43-3.71,2-5.71h-5.7
			c0.57-1.71,0.86-3.71,1.43-5.71h5.7c0.29-1.71,0.86-3.71,1.14-5.7h11.41c0.29-1.71,0.57-3.71,0.86-5.71H476.4
			C477.54,575.67,478.11,564.55,478.11,551.43z"/>
	</g>
	<g>
		<path class="st0" d="M633.28,605.62H544v-18.26h2.85v-2.85H544v-13.98l2-3.14h17.11l3.42-5.71h-17.11l1.71-2.85h-11.41l3.42-5.71
			h11.41l1.71-2.85h-2.85l1.71-2.85h2.85l8.56-14.26h11.41l3.42-5.71h-11.41l3.42-5.7h2.85l6.85-11.41h14.26l5.13-8.56h-8.56
			l6.56-11.41h-8.56l25.96-44.21h62.75v44.21h8.56v11.41h8.56v8.56h-14.26v11.41h-2.85v5.7h11.41v5.71h-11.41v14.26h-2.85v2.85h2.85
			v2.85h-11.41v5.71h11.41v2.85h17.11v5.42h23.39v0.29h-17.11v17.11h2.85v2.85h-2.85v18.26h-23.39v13.12h-5.71v8.56h22.82v11.41
			h-17.11v11.41h14.26v5.71h-14.26v2.85h-47.35v-2.85h14.26v-5.71h-14.26v-11.41h17.11V627.3h-22.82v-8.56h5.7V605.62z
			 M650.4,567.12v-5.42h-17.11v-2.85h-11.41v-5.71h11.41v-2.85h-2.85v-2.85h2.85v-11.41c0-0.86,0-2,0-2.85h11.41
			c0-1.71,0-3.71,0.28-5.71h-11.41c0-2,0-3.71,0.28-5.7h2.85c0-3.71,0.28-7.42,0.28-11.41h14.26c0-2.85,0.28-5.71,0.28-8.56h-8.56
			c0.28-3.99,0.28-7.99,0.57-11.41h-8.56c0-0.57,0-1.14,0-1.71h-1.14c-0.28,0.57-0.57,1.14-0.86,1.71h8.56
			c-1.71,3.71-3.42,7.7-5.13,11.41h8.56c-1.43,2.85-2.57,5.71-3.99,8.56h-14.26c-1.71,3.71-3.42,7.7-5.42,11.41h-2.85
			c-0.57,1.14-1.14,2.28-1.71,3.42l-1.43,2.28h11.41l-3.14,5.71h-11.41l-7.99,14.26h-2.85l-1.71,2.85h2.85l-1.71,2.85h-11.41
			l-3.42,5.71h11.41l-1.71,2.85h17.11l-3.14,5.42H650.4z"/>
	</g>
</g>
</svg>
