<?xml version="1.0" encoding="utf-8"?>
<!-- Generator: Adobe Illustrator 25.3.1, SVG Export Plug-In . SVG Version: 6.00 Build 0)  -->
<svg version="1.1" id="Layer_1" xmlns="http://www.w3.org/2000/svg" xmlns:xlink="http://www.w3.org/1999/xlink" x="0px" y="0px"
	 viewBox="0 0 64 32" style="enable-background:new 0 0 64 32;" xml:space="preserve">
<style type="text/css">
	.st0{fill:#FFFFFF;}
</style>
<g>
	<g>
		<g>
			<g>
				<path class="st0" d="M53.26,10.13l-2.88,5.66c-0.01,0.04-0.02,0.08-0.03,0.12v0.86L57.08,30h5.54c0.11-0.11,0.17-0.17,0.28-0.28
					v-0.65L53.26,10.13z"/>
			</g>
			<g>
				<path class="st0" d="M10.74,21.87l2.88-5.66c0.01-0.04,0.02-0.08,0.03-0.12v-0.86L6.92,2H1.39C1.28,2.11,1.22,2.17,1.11,2.28
					v0.65L10.74,21.87z"/>
			</g>
			<g>
				<path class="st0" d="M37.5,2.93V2.28C37.4,2.17,37.34,2.11,37.23,2h-5.54L22.5,20.08v0.65c0.11,0.11,0.17,0.17,0.28,0.28h0.99
					h4.55L37.5,2.93z"/>
			</g>
			<g>
				<path class="st0" d="M28.66,2h-5.54L9.37,29.07v0.65c0.11,0.11,0.17,0.17,0.28,0.28h5.54L28.94,2.93V2.28
					C28.83,2.17,28.77,2.11,28.66,2z"/>
			</g>
			<g>
				<path class="st0" d="M45.79,2h-5.54L26.5,29.07v0.65c0.11,0.11,0.17,0.17,0.28,0.28h5.54L46.07,2.93V2.28
					C45.96,2.17,45.9,2.11,45.79,2z"/>
			</g>
			<g>
				<path class="st0" d="M54.36,2h-5.54L35.06,29.07v0.65c0.11,0.11,0.17,0.17,0.28,0.28h5.54L54.63,2.93V2.28
					C54.53,2.17,54.47,2.11,54.36,2z"/>
			</g>
		</g>
		<g>
			<polygon class="st0" points="50.89,22.58 50.67,22.15 49.28,19.43 48.53,19.43 47.15,22.15 46.93,22.58 45.52,25.35 45.87,26.04 
				48.69,26.04 49.13,26.04 51.95,26.04 52.29,25.35 			"/>
		</g>
	</g>
</g>
</svg>
